<?xml version="1.0" standalone="no"?><!DOCTYPE svg PUBLIC "-//W3C//DTD SVG 1.1//EN" "http://www.w3.org/Graphics/SVG/1.1/DTD/svg11.dtd"><svg t="1482388206565" class="icon" style="" viewBox="0 0 1024 1024" version="1.1" xmlns="http://www.w3.org/2000/svg" p-id="3192" xmlns:xlink="http://www.w3.org/1999/xlink" width="20" height="20"><defs><style type="text/css"></style></defs><path d="M0 63.48352C0 28.4224 29.122496 0 63.483648 0L229.087808 0C264.148864 0 292.571456 29.12256 292.571456 63.48352L292.571456 229.088C292.571456 264.14912 263.44896 292.57152 229.087808 292.57152L63.483648 292.57152C28.422592 292.57152 0 263.44896 0 229.088L0 63.48352ZM365.714304 63.48352C365.714304 28.4224 394.8368 0 429.197952 0L594.802048 0C629.863104 0 658.285696 29.12256 658.285696 63.48352L658.285696 229.088C658.285696 264.14912 629.1632 292.57152 594.802048 292.57152L429.197952 292.57152C394.136896 292.57152 365.714304 263.44896 365.714304 229.088L365.714304 63.48352ZM731.428544 63.48352C731.428544 28.4224 760.55104 0 794.912192 0L960.516352 0C995.577408 0 1024 29.12256 1024 63.48352L1024 229.088C1024 264.14912 994.877504 292.57152 960.516352 292.57152L794.912192 292.57152C759.851136 292.57152 731.428544 263.44896 731.428544 229.088L731.428544 63.48352ZM0 429.19808C0 394.13696 29.122496 365.71456 63.483648 365.71456L229.087808 365.71456C264.148864 365.71456 292.571456 394.83648 292.571456 429.19808L292.571456 594.80192C292.571456 629.86304 263.44896 658.28544 229.087808 658.28544L63.483648 658.28544C28.422592 658.28544 0 629.16352 0 594.80192L0 429.19808ZM365.714304 429.19808C365.714304 394.13696 394.8368 365.71456 429.197952 365.71456L594.802048 365.71456C629.863104 365.71456 658.285696 394.83648 658.285696 429.19808L658.285696 594.80192C658.285696 629.86304 629.1632 658.28544 594.802048 658.28544L429.197952 658.28544C394.136896 658.28544 365.714304 629.16352 365.714304 594.80192L365.714304 429.19808ZM731.428544 429.19808C731.428544 394.13696 760.55104 365.71456 794.912192 365.71456L960.516352 365.71456C995.577408 365.71456 1024 394.83648 1024 429.19808L1024 594.80192C1024 629.86304 994.877504 658.28544 960.516352 658.28544L794.912192 658.28544C759.851136 658.28544 731.428544 629.16352 731.428544 594.80192L731.428544 429.19808ZM0 794.912C0 759.85088 29.122496 731.42848 63.483648 731.42848L229.087808 731.42848C264.148864 731.42848 292.571456 760.55104 292.571456 794.912L292.571456 960.51648C292.571456 995.5776 263.44896 1024 229.087808 1024L63.483648 1024C28.422592 1024 0 994.87744 0 960.51648L0 794.912ZM365.714304 794.912C365.714304 759.85088 394.8368 731.42848 429.197952 731.42848L594.802048 731.42848C629.863104 731.42848 658.285696 760.55104 658.285696 794.912L658.285696 960.51648C658.285696 995.5776 629.1632 1024 594.802048 1024L429.197952 1024C394.136896 1024 365.714304 994.87744 365.714304 960.51648L365.714304 794.912Z" p-id="3193" fill="#d81e06"></path></svg>